<?xml version="1.0" encoding="UTF-8" standalone="no"?>
<svg
   xmlns:dc="http://purl.org/dc/elements/1.1/"
   xmlns:cc="http://creativecommons.org/ns#"
   xmlns:rdf="http://www.w3.org/1999/02/22-rdf-syntax-ns#"
   xmlns:svg="http://www.w3.org/2000/svg"
   xmlns="http://www.w3.org/2000/svg"
   xmlns:sodipodi="http://sodipodi.sourceforge.net/DTD/sodipodi-0.dtd"
   xmlns:inkscape="http://www.inkscape.org/namespaces/inkscape"
   width="128mm"
   height="128mm"
   viewBox="0 0 128 128"
   version="1.1"
   id="svg8"
   sodipodi:docname="logo.svg"
   inkscape:version="1.0 (b51213c273, 2020-08-10)">
  <defs
     id="defs2">
    <inkscape:path-effect
       effect="copy_rotate"
       starting_point="118.83148,66.66"
       origin="107.16,66.66"
       id="path-effect921"
       is_visible="true"
       lpeversion="1"
       method="normal"
       num_copies="6"
       starting_angle="0"
       rotation_angle="60"
       gap="-0.01"
       copies_to_360="true"
       mirror_copies="false"
       split_items="false" />
    <inkscape:path-effect
       effect="fillet_chamfer"
       id="path-effect919"
       is_visible="true"
       lpeversion="1"
       satellites_param="F,0,0,1,0,1.0583333,0,1 @ F,0,0,1,0,1.0583333,0,1 @ F,0,0,1,0,1.0583333,0,1 @ F,0,0,1,0,1.0583333,0,1"
       unit="px"
       method="auto"
       mode="F"
       radius="4"
       chamfer_steps="1"
       flexible="false"
       use_knot_distance="true"
       apply_no_radius="true"
       apply_with_radius="true"
       only_selected="false"
       hide_knots="false" />
    <inkscape:path-effect
       effect="fillet_chamfer"
       id="path-effect915"
       is_visible="true"
       lpeversion="1"
       satellites_param="F,0,0,1,0,1.0583333,0,1 @ F,0,0,1,0,1.0583333,0,1 @ F,0,0,1,0,1.0583333,0,1 @ F,0,0,1,0,1.0583333,0,1"
       unit="px"
       method="auto"
       mode="F"
       radius="4"
       chamfer_steps="1"
       flexible="false"
       use_knot_distance="true"
       apply_no_radius="true"
       apply_with_radius="true"
       only_selected="false"
       hide_knots="false" />
    <inkscape:path-effect
       effect="bspline"
       id="path-effect913"
       is_visible="true"
       lpeversion="1"
       weight="33.333333"
       steps="2"
       helper_size="0"
       apply_no_weight="true"
       apply_with_weight="true"
       only_selected="false" />
  </defs>
  <sodipodi:namedview
     id="base"
     pagecolor="#ffffff"
     bordercolor="#666666"
     borderopacity="1.0"
     inkscape:pageopacity="0.0"
     inkscape:pageshadow="2"
     inkscape:zoom="1.4142136"
     inkscape:cx="161.28728"
     inkscape:cy="183.14791"
     inkscape:document-units="mm"
     inkscape:current-layer="g961"
     inkscape:document-rotation="0"
     showgrid="false"
     inkscape:window-width="1920"
     inkscape:window-height="2089"
     inkscape:window-x="1920"
     inkscape:window-y="34"
     inkscape:window-maximized="0"
     fit-margin-top="0"
     fit-margin-left="0"
     fit-margin-right="0"
     fit-margin-bottom="0" />
  <metadata
     id="metadata5">
    <rdf:RDF>
      <cc:Work
         rdf:about="">
        <dc:format>image/svg+xml</dc:format>
        <dc:type
           rdf:resource="http://purl.org/dc/dcmitype/StillImage" />
        <dc:title></dc:title>
      </cc:Work>
    </rdf:RDF>
  </metadata>
  <g
     inkscape:label="Layer 1"
     inkscape:groupmode="layer"
     id="layer1"
     transform="translate(-88.388411,-48.892683)">
    <g
       id="g961"
       transform="matrix(3.2449273,0,0,3.2449273,-198.42555,-108.06903)">
      <path
         id="path954"
         style="opacity:1;fill:#5a50e6;fill-opacity:1;stroke:none;stroke-width:0.234525"
         d="m 113.90469,48.893299 c -0.35289,0.0114 -0.69458,0.181142 -0.91519,0.485759 l -2.27687,3.142443 a 15.788914,15.788914 0 0 0 -2.60139,-0.216008 15.788914,15.788914 0 0 0 -2.64583,0.223244 l -2.37918,-3.099038 c -0.3685,-0.480097 -1.03628,-0.61201 -1.5596,-0.30799 l -6.700882,3.892785 c -0.52035,0.302294 -0.729252,0.948695 -0.48369,1.4981 l 1.583365,3.542419 a 15.788914,15.788914 0 0 0 -2.616893,4.547526 l -3.874183,0.511079 c -0.600033,0.07908 -1.047559,0.591609 -1.045932,1.196827 l 0.02067,7.749397 c 0.0016,0.601787 0.456655,1.106361 1.055232,1.168406 l 3.859713,0.399976 a 15.788914,15.788914 0 0 0 2.630331,4.540289 l -1.494999,3.610118 c -0.231513,0.559194 -0.01179,1.203592 0.513146,1.504818 l 6.722592,3.856611 c 0.52196,0.299511 1.18542,0.157171 1.53841,-0.330213 l 2.27582,-3.142443 a 15.788914,15.788914 0 0 0 2.60191,0.216006 15.788914,15.788914 0 0 0 2.64635,-0.223758 l 2.37867,3.099554 c 0.3685,0.480099 1.03627,0.61201 1.55959,0.307991 l 6.7014,-3.892786 c 0.52036,-0.302294 0.72822,-0.948692 0.48266,-1.4981 l -1.58285,-3.542419 a 15.788914,15.788914 0 0 0 2.6169,-4.547526 l 3.87418,-0.511082 c 0.60003,-0.07908 1.04808,-0.591603 1.04645,-1.196824 l -0.0212,-7.749916 c -0.002,-0.601787 -0.45664,-1.105326 -1.05524,-1.16737 l -3.85919,-0.399976 a 15.788914,15.788914 0 0 0 -2.63085,-4.541325 l 1.49449,-3.610115 c 0.23152,-0.559194 0.0123,-1.203076 -0.51263,-1.504301 l -6.72207,-3.856612 c -0.19574,-0.112316 -0.41149,-0.162388 -0.62322,-0.155546 z" />
      <g
         aria-label="H"
         id="text952"
         style="font-size:33.9801px;line-height:1.25;font-family:Redkost;-inkscape-font-specification:Redkost;fill:#ffffff;stroke-width:0.849503">
        <path
           d="m 104.64381,65.24071 h 6.96858 v -5.176656 q 0,-1.028694 0.71345,-1.758736 0.69686,-0.730041 1.74214,-0.730041 h 0.0332 q 1.02869,0 1.74214,0.730041 0.73004,0.730042 0.73004,1.758736 v 16.077498 q 0,1.028694 -0.73004,1.758736 -0.73004,0.713449 -1.74214,0.713449 h -0.0332 q -1.04528,0 -1.75873,-0.713449 -0.69686,-0.730042 -0.69686,-1.758736 v -6.819248 h -6.96858 v 6.819248 q 0,1.028694 -0.73004,1.758736 -0.71345,0.713449 -1.75873,0.713449 h -0.0498 q -1.02869,0 -1.74214,-0.713449 -0.713452,-0.730042 -0.713452,-1.758736 V 60.064054 q 0,-1.028694 0.713452,-1.758736 0.71345,-0.730041 1.74214,-0.730041 h 0.0498 q 1.02869,0 1.75873,0.730041 0.73004,0.730042 0.73004,1.758736 z"
           style="font-style:normal;font-variant:normal;font-weight:normal;font-stretch:normal;font-family:Dyuthi;-inkscape-font-specification:Dyuthi;text-align:center;text-anchor:middle;fill:#ffffff;stroke-width:0.849503"
           id="path1017" />
      </g>
    </g>
  </g>
</svg>
